<svg width="79" height="79" viewBox="0 0 79 79" fill="none" xmlns="http://www.w3.org/2000/svg">
<path fill-rule="evenodd" clip-rule="evenodd" d="M23.6441 68.1753L15.6451 60.4333L23.6441 68.1753Z" fill="#6D0753" fill-opacity="0.75"/>
<path fill-rule="evenodd" clip-rule="evenodd" d="M27.8955 34.2406L36.0921 40.6858C37.2206 41.7575 38.418 41.3326 39.4313 40.9034L48.3651 35.5469C49.5012 34.9916 49.3575 34.197 48.3651 33.5874L39.6914 27.6212C38.601 27.2463 38.3803 27.1037 36.8725 27.7952L27.9389 32.4986C26.9635 32.9911 27.0519 33.6136 27.8954 34.2406L27.8955 34.2406Z" fill="#2FC6AF"/>
<path fill-rule="evenodd" clip-rule="evenodd" d="M6.32193 17.1621L12.5117 21.8944C13.6401 22.9663 14.8376 22.5412 15.8511 22.1122L24.1327 18.0654C25.2689 17.5101 25.1251 16.7153 24.1327 16.1056L17.8672 11.651C16.7767 11.2759 16.5559 11.1333 15.0482 11.8249L6.36528 15.4198C5.38987 15.9123 5.4783 16.5349 6.32183 17.1619H6.32183L6.32193 17.1621Z" fill="#5DDBE3"/>
<path fill-rule="evenodd" clip-rule="evenodd" d="M16.5564 25.1717L23.5488 30.7604C24.6773 31.8323 25.8748 31.4073 26.8882 30.9782L35.4205 26.3774C36.5566 25.8222 36.4131 25.0272 35.4205 24.4174L28.252 19.0053C27.1616 18.6306 26.9407 18.488 25.4331 19.1795L16.5998 23.4294C15.6243 23.9221 15.7129 24.5445 16.5564 25.1717Z" fill="#FFA852"/>
<path fill-rule="evenodd" clip-rule="evenodd" d="M6.22013 31.539L12.452 36.8888C13.1286 37.4315 13.5 38.0283 13.3389 39.4925L13.7337 46.955C13.4959 47.7059 13.0846 47.5429 12.6695 47.3598L6.61037 41.4638C6.10944 41.2833 5.75396 40.7704 5.78263 39.3808L5.15582 32.2333C5.16802 31.5131 5.31055 31.0315 6.22019 31.5389L6.22013 31.539Z" fill="#D152FF"/>
<path fill-rule="evenodd" clip-rule="evenodd" d="M5.45319 19.4304L11.685 24.7803C12.3616 25.3229 12.7331 25.9198 12.572 27.384L12.9668 34.8465C12.729 35.5973 12.3177 35.4344 11.9026 35.2512L5.84343 29.3553C5.34251 29.1748 4.98703 28.6619 5.0157 27.2723L4.38889 20.1248C4.40108 19.4046 4.54361 18.923 5.45325 19.4303L5.45319 19.4304Z" fill="#7DE459"/>
<path fill-rule="evenodd" clip-rule="evenodd" d="M7.31993 43.5804L13.1261 49.0014C13.8027 49.5441 14.1741 50.1409 14.013 51.6052L14.3725 57.7137C14.1345 58.4649 13.7232 58.3016 13.3081 58.1188L7.85213 52.4721C7.35104 52.2919 6.81834 51.7078 6.84684 50.3179L6.25558 44.2747C6.26761 43.5546 6.41031 43.0732 7.31995 43.5805L7.31993 43.5804Z" fill="#F4C744"/>
<path fill-rule="evenodd" clip-rule="evenodd" d="M42.5123 26.5617L50.4679 32.4263C51.5964 33.4982 52.7939 33.0729 53.8071 32.644L61.3918 28.0134C62.5279 27.4581 62.3842 26.6633 61.3918 26.0533L52.9109 20.5712C51.8204 20.1961 51.5997 20.0533 50.0919 20.7452L42.5556 24.8193C41.5802 25.3118 41.6687 25.9345 42.5122 26.5615L42.5123 26.5617Z" fill="#F4C744"/>
<path fill-rule="evenodd" clip-rule="evenodd" d="M54.8498 19.9328L63.1427 24.8781C64.2712 25.9497 65.4687 25.525 66.4819 25.0956L72.6914 21.1543C73.8276 20.5991 73.684 19.8041 72.6914 19.1944L64.2846 14.3293C63.1941 13.9546 62.9733 13.8119 61.4656 14.5036L54.8929 18.1908C53.9177 18.683 54.0061 19.3056 54.8497 19.9326L54.8498 19.9328Z" fill="#FF7BAC"/>
<path fill-rule="evenodd" clip-rule="evenodd" d="M30.225 18.4811L37.3131 23.5716C38.4417 24.6435 39.639 24.2184 40.6526 23.7893L48.1407 19.8359C49.2768 19.2808 49.1331 18.486 48.1407 17.8763L40.8645 13.1683C39.7742 12.7934 39.5534 12.6505 38.0458 13.3423L30.2683 16.7391C29.2928 17.2314 29.3814 17.8542 30.225 18.4812V18.4811Z" fill="#75A8FC"/>
<path fill-rule="evenodd" clip-rule="evenodd" d="M19.962 11.3683L26.2311 15.3457C27.3595 16.4176 28.557 15.9927 29.5703 15.5635L37.0102 12.3845C38.1463 11.8292 38.0027 11.0346 37.0102 10.425L30.4086 6.15206C29.3182 5.77716 29.0975 5.63455 27.5897 6.3264L20.0052 9.62627C19.03 10.1186 19.1184 10.7413 19.9619 11.3681L19.962 11.3683Z" fill="#7DE459"/>
<path fill-rule="evenodd" clip-rule="evenodd" d="M32.4428 6.0458L38.7118 9.6362C39.8403 10.7079 41.0378 10.2832 42.051 9.85382L48.9127 6.48128C50.0488 5.92618 49.1824 5.71184 48.1899 5.10242L41.7811 1.4102C40.6906 1.0353 40.4698 0.892689 38.9621 1.58437L32.486 4.30374C31.5106 4.79624 31.599 5.41877 32.4426 6.0456L32.4428 6.0458Z" fill="#F15146"/>
<path fill-rule="evenodd" clip-rule="evenodd" d="M43.0369 12.3571L50.2273 16.626C51.3558 17.6981 52.5533 17.273 53.5667 16.8438L59.8283 13.6775C60.9645 13.1223 60.8207 12.3277 59.8283 11.7178L52.3477 7.59124C51.2572 7.21669 51.0364 7.07373 49.5287 7.76575L43.0803 10.6148C42.1049 11.1073 42.1933 11.7298 43.0369 12.3568L43.0369 12.3571Z" fill="#D152FF"/>
<path fill-rule="evenodd" clip-rule="evenodd" d="M59.1812 61.7052L60.4429 54.7264C60.5921 53.9387 61.1291 53.2346 61.6653 52.9801L68.464 48.2823C68.8756 48.0654 69.4044 47.8493 69.4013 48.9476L67.8982 56.301C67.846 56.5936 67.7031 57.0494 67.2463 57.465L60.0369 62.1626C59.3562 62.4873 59.1843 62.1091 59.1813 61.7052L59.1812 61.7052Z" fill="#5DDBE3"/>
<path fill-rule="evenodd" clip-rule="evenodd" d="M63.4233 38.3921L64.6004 29.717C64.7498 28.9291 65.2866 28.2252 65.8227 27.9708L73.674 22.6341C74.0855 22.4171 74.6142 22.2009 74.6111 23.2992L72.8155 32.4658C72.7633 32.7585 72.6204 33.2142 72.1637 33.6298L64.2789 38.8496C63.5981 39.1743 63.4261 38.7961 63.4232 38.3921L63.4233 38.3921Z" fill="#F4C744"/>
<path fill-rule="evenodd" clip-rule="evenodd" d="M61.0585 51.1921L62.1998 43.3181C62.3492 42.5304 62.8861 41.8263 63.4222 41.5718L70.8476 36.7533C71.2591 36.5362 71.7878 36.3202 71.7847 37.4183L70.2333 45.4008C70.1811 45.6932 70.0382 46.1493 69.5815 46.5649L61.9144 51.6492C61.2336 51.974 61.0617 51.5961 61.0586 51.1921L61.0585 51.1921Z" fill="#7DE459"/>
<path fill-rule="evenodd" clip-rule="evenodd" d="M36.4281 77.3227L36.6899 70.433C36.8391 69.6453 37.3761 68.9412 37.9122 68.6869L46.4997 62.9699C46.9112 62.7528 47.4401 62.5366 47.4369 63.635L46.6223 70.8407C46.5701 71.1333 46.4273 71.5892 45.9705 72.0047L37.2838 77.7801C36.6031 78.1048 36.431 77.7268 36.4281 77.3228L36.4281 77.3227Z" fill="#F15146"/>
<path fill-rule="evenodd" clip-rule="evenodd" d="M38.0655 54.996L38.5952 45.2257C38.7445 44.438 39.2815 43.7341 39.8176 43.4797L49.2703 37.493C49.6817 37.2761 50.2105 37.0598 50.2074 38.1579L49.2296 47.8036C49.1772 48.0963 49.0345 48.552 48.5775 48.9676L38.9211 55.4534C38.2404 55.7781 38.0683 55.3999 38.0654 54.996L38.0655 54.996Z" fill="#FFA852"/>
<path fill-rule="evenodd" clip-rule="evenodd" d="M37.178 67.0375L37.4239 59.3338C37.5731 58.546 38.1101 57.8419 38.6463 57.5876L47.7798 51.2089C48.1913 50.9918 48.72 50.7757 48.7169 51.8742L48.0228 60.0233C47.9706 60.3158 47.8277 60.7719 47.3709 61.1875L38.0336 67.495C37.3529 67.8197 37.181 67.4417 37.1781 67.0375L37.178 67.0375Z" fill="#75A8FC"/>
<path fill-rule="evenodd" clip-rule="evenodd" d="M48.0921 69.2571L49.0407 62.3265C49.19 61.5389 49.727 60.8346 50.2631 60.5803L58.0498 55.2777C58.4613 55.061 58.99 54.8447 58.9869 55.9428L57.6524 63.1268C57.6002 63.4195 57.4574 63.8756 57.0006 64.2912L48.948 69.7142C48.2672 70.0389 48.0952 69.6609 48.0922 69.2571L48.0921 69.2571Z" fill="#2FC6AF"/>
<path fill-rule="evenodd" clip-rule="evenodd" d="M51.6012 46.1606L52.744 37.1773C52.8934 36.3895 53.4303 35.6856 53.9664 35.4313L62.363 30.1285C62.7745 29.9116 63.3032 29.6953 63.3001 30.7938L61.8793 39.6864C61.8271 39.9788 61.6842 40.4349 61.2274 40.8505L52.4568 46.6177C51.7761 46.9424 51.6042 46.5643 51.6013 46.1604L51.6012 46.1606Z" fill="#FF7BAC"/>
<path fill-rule="evenodd" clip-rule="evenodd" d="M49.6588 58.2469L50.6315 50.3244C50.7807 49.5367 51.3177 48.8326 51.8538 48.5782L59.9777 43.2757C60.3891 43.0588 60.9179 42.8425 60.9148 43.941L59.4599 52.2861C59.4077 52.5788 59.2648 53.0345 58.808 53.4501L50.5145 58.7043C49.8338 59.029 49.6617 58.6508 49.6588 58.2469Z" fill="#F15146"/>
<path fill-rule="evenodd" clip-rule="evenodd" d="M26.0331 49.4003L33.9325 56.219C34.6093 56.762 34.9808 57.3589 34.8195 58.8231L34.5475 66.2731C34.3097 67.024 33.8984 66.861 33.4833 66.6782L25.8557 59.5389C25.3546 59.3585 24.9993 58.8457 25.0278 57.4557L24.9687 50.0946C24.9807 49.3745 25.1232 48.893 26.0331 49.4004L26.0331 49.4003Z" fill="#FFA852"/>
<path fill-rule="evenodd" clip-rule="evenodd" d="M26.0294 36.0398L35.3126 42.7518C35.9892 43.2948 36.3606 43.8917 36.1993 45.3556L35.7855 54.2664C35.5476 55.0174 35.1364 54.8541 34.7211 54.6715L25.8519 47.4967C25.351 47.3163 24.9955 46.8035 25.0242 45.4135L24.9651 36.7343C24.9771 36.014 25.1196 35.5327 26.0293 36.0397L26.0294 36.0398Z" fill="#FF7BAC"/>
<path fill-rule="evenodd" clip-rule="evenodd" d="M26.0573 61.3503L33.4248 68.0981C34.1016 68.641 34.473 69.2378 34.3118 70.7019L34.1463 76.8694C33.9084 77.6203 33.4969 77.4573 33.0819 77.2744L25.9864 70.2064C25.4855 70.026 25.13 69.5132 25.1587 68.1236L24.9931 62.0448C25.0051 61.3246 25.1477 60.843 26.0573 61.3502L26.0573 61.3503Z" fill="#5DDBE3"/>
<path fill-rule="evenodd" clip-rule="evenodd" d="M14.6997 26.5131L22.5279 33.0744C23.2047 33.6171 23.5762 34.2139 23.4149 35.6781L23.7034 44.3872C23.4656 45.138 23.0541 44.975 22.6391 44.7923L14.5225 37.97C14.0215 37.7896 13.6661 37.2768 13.6947 35.8868L13.6357 27.2076C13.6477 26.4873 13.7902 26.0062 14.6998 26.5132L14.6997 26.5131Z" fill="#F15146"/>
<path fill-rule="evenodd" clip-rule="evenodd" d="M15.9768 51.6013L22.7408 57.8774C23.4174 58.4201 23.7888 59.0169 23.6276 60.4811L23.7743 66.3404C23.5364 67.0914 23.125 66.9283 22.7099 66.7455L16.1541 60.4219C15.6532 60.2417 15.2977 59.7288 15.3264 58.3391L14.9124 52.2959C14.9246 51.5756 15.0671 51.0942 15.9767 51.6013L15.9768 51.6013Z" fill="#75A8FC"/>
<path fill-rule="evenodd" clip-rule="evenodd" d="M15.5158 40.0773L22.5988 46.3887C23.2756 46.9318 23.6471 47.5286 23.4858 48.9925L23.5969 56.5264C23.3591 57.2772 22.9478 57.1142 22.5326 56.9315L15.6577 50.572C15.1566 50.3918 14.8013 49.8789 14.8298 48.4892L14.4515 40.7714C14.4635 40.0513 14.6061 39.5701 15.5159 40.0771L15.5158 40.0773Z" fill="#2FC6AF"/>
</svg>
